<!-- Created with PixiEditor (https://pixieditor.net) -->
<svg version="1.1" viewBox="0 0 572 745" xmlns="http://www.w3.org/2000/svg">
  <path d="M268.539 172.351C287.23 172.221 305.921 172.207 324.612 172.309L438.092 172.275L735.811 172.263C745.234 172.268 752.639 171.796 759.671 179.163C762.888 182.532 765.69 186.954 765.918 191.674C766.31 199.763 766.183 208.206 766.185 216.305L766.207 259.769L766.306 397.648L766.219 635.066C766.236 681.05 766.281 727.024 766.109 773.007C765.99 804.872 733.829 798.151 711.443 798.126L669.273 798.179L397.825 798.258L315.841 798.264C300.823 798.233 283.699 797.402 269.255 798.972C252.006 800.846 236.259 818.222 236.85 835.711C236.481 847.35 240.252 854.703 248.028 863.225C261.103 877.553 282.525 873.999 300.697 873.975L347.183 873.972L619.048 873.96L702.66 873.883C717.262 873.859 732.533 873.481 747.055 874.322C751.226 874.511 755.467 876.86 758.606 879.571C773.664 892.577 764.778 916.457 745.007 916.713C733.085 916.867 721.333 916.79 709.525 916.769L646.133 916.789L439.991 916.787L322.058 916.754L286.068 916.817C259.818 916.849 239.413 915.916 218.585 896.726C204.921 884.137 195.369 866.171 195.079 847.351C194.855 832.756 195.031 818.117 195.013 803.506L194.98 713.074L194.966 453.196L195.016 305.973L195.056 262.171C195.067 253.588 194.545 242.445 195.807 234.165C201.323 197.962 233.13 173.839 268.539 172.351ZM505.818 537.709L505.818 385.559L573.92 385.559L573.92 338.998C573.92 338.998 507.738 338.518 505.818 338.998L505.818 270.153L457.818 270.153L457.818 338.998L387.713 338.998L387.713 385.559L457.818 385.559L457.818 537.709" fill-rule="nonzero" transform="matrix(1, 0, 0, 1, -194.95819, -172.24173)" fill="#806020" fill-opacity="1" stroke="#806020" stroke-width="0" stroke-linecap="butt" stroke-linejoin="miter" opacity="1" id="Path" />
</svg>