<?xml version="1.0" encoding="UTF-8" standalone="no"?>
<!-- Created with PixiEditor (https://pixieditor.net) -->

<svg
   version="1.1"
   viewBox="0 0 389.61566 503.7149"
   id="svg1"
   sodipodi:docname="Bible.svg"
   inkscape:version="1.4.2 (f4327f4, 2025-05-13)"
   width="389.61566"
   height="503.7149"
   xmlns:inkscape="http://www.inkscape.org/namespaces/inkscape"
   xmlns:sodipodi="http://sodipodi.sourceforge.net/DTD/sodipodi-0.dtd"
   xmlns="http://www.w3.org/2000/svg"
   xmlns:svg="http://www.w3.org/2000/svg">
  <defs
     id="defs1" />
  <sodipodi:namedview
     id="namedview1"
     pagecolor="#505050"
     bordercolor="#ffffff"
     borderopacity="1"
     inkscape:showpageshadow="0"
     inkscape:pageopacity="0"
     inkscape:pagecheckerboard="1"
     inkscape:deskcolor="#505050"
     inkscape:zoom="2.5677852"
     inkscape:cx="231.7172"
     inkscape:cy="337.83979"
     inkscape:window-width="3840"
     inkscape:window-height="2131"
     inkscape:window-x="-9"
     inkscape:window-y="-9"
     inkscape:window-maximized="1"
     inkscape:current-layer="svg1"
     inkscape:lockguides="false">
    <sodipodi:guide
       position="-54.217628,515.80285"
       orientation="0,512"
       id="guide1"
       inkscape:locked="false" />
    <sodipodi:guide
       position="457.78237,515.80285"
       orientation="512,0"
       id="guide2"
       inkscape:locked="false" />
    <sodipodi:guide
       position="457.78237,3.8028515"
       orientation="0,-512"
       id="guide3"
       inkscape:locked="false" />
    <sodipodi:guide
       position="-54.217628,3.8028515"
       orientation="-512,0"
       id="guide4"
       inkscape:locked="false" />
  </sodipodi:namedview>
  <path
     d="m 55.090762,6.6601385 c 12.31392,-0.08565 24.62785,-0.09487 36.94178,-0.02767 l 74.762418,-0.0224 196.14198,-0.0079 c 6.20801,0.0033 11.08655,-0.307667 15.71935,4.5458275 2.1194,2.219551 3.96541,5.132834 4.11561,8.242445 0.25826,5.329161 0.17458,10.891542 0.17591,16.227292 l 0.0145,28.63477 0.0652,90.836867 -0.0572,156.41474 c 0.0112,30.29498 0.0409,60.58339 -0.0725,90.8777 -0.0784,20.99317 -21.26658,16.56527 -36.01483,16.54879 l -27.78226,0.0349 -178.83423,0.052 -54.012358,0.004 c -9.89409,-0.0205 -21.17565,-0.5679 -30.69159,0.46645 -11.36391,1.23462 -21.738284,12.68219 -21.348923,24.20422 -0.243103,7.66796 2.241291,12.51224 7.364244,18.12667 8.614019,9.4395 22.727169,7.09808 34.699169,7.08226 l 30.625708,-0.002 179.10896,-0.008 55.08491,-0.0507 c 9.62002,-0.0159 19.6808,-0.26484 29.24813,0.28923 2.74792,0.12452 5.54195,1.67207 7.60998,3.45812 9.92045,8.56857 4.0662,24.30109 -8.95925,24.46974 -7.85439,0.10146 -15.5968,0.0507 -23.37609,0.0369 l -41.76366,0.0132 -135.8096,-9.5e-4 -77.696128,-0.0217 -23.71078,0.0415 c -17.29398,0.0208 -30.73712,-0.59391 -44.458934,-13.2366 -9.00206,-8.29383 -15.2950685,-20.13011 -15.4861255,-32.52902 -0.147575,-9.61542 -0.03162,-19.25982 -0.04348,-28.88578 l -0.02174,-59.57803 -0.0092,-171.21173 0.03294,-96.992845 0.02635,-28.857452 c 0.0072,-5.654616 -0.336659,-12.9958 0.494767,-18.450795 C 10.807799,23.533069 31.762753,7.6404565 55.090762,6.6601385 Z M 211.41392,247.36377 V 147.12494 h 44.86667 v -30.67512 c 0,0 -40.52291,-0.0597 -44.86667,0 V 71.093641 h -31.62317 v 45.356179 h -46.18627 v 30.67512 h 46.18627 v 100.23883 z"
     fill-rule="nonzero"
     fill="#806020"
     fill-opacity="1"
     stroke="#806020"
     stroke-width="0"
     stroke-linecap="butt"
     stroke-linejoin="miter"
     opacity="1"
     id="Path"
     style="fill:#af8f5f;fill-opacity:1;stroke:#000000;stroke-width:13.1763;stroke-dasharray:none;stroke-opacity:1"
     sodipodi:nodetypes="cccccccccccccccccccccccccccccccccccccccccccccccccccc" />
</svg>
